<svg version="1.1" xmlns="http://www.w3.org/2000/svg" width="32" height="32" viewBox="0 0 32 32">
<title>Bucket</title>
<path d="M6.154 6.564c0.68 0 1.231 0.551 1.231 1.231v19.692c0 1.133 0.918 2.051 2.051 2.051h13.128c1.133 0 2.051-0.918 2.051-2.051v-19.692c0-0.68 0.551-1.231 1.231-1.231s1.231 0.551 1.231 1.231v19.692c0 2.492-2.020 4.513-4.513 4.513h-13.128c-2.492 0-4.513-2.020-4.513-4.513v-19.692c0-0.68 0.551-1.231 1.231-1.231z"></path>
<path d="M1.641 7.795c0-0.68 0.551-1.231 1.231-1.231h26.256c0.68 0 1.231 0.551 1.231 1.231s-0.551 1.231-1.231 1.231h-26.256c-0.68 0-1.231-0.551-1.231-1.231z"></path>
<path d="M9.976 0.68c0.208-0.417 0.635-0.68 1.101-0.68h9.846c0.466 0 0.892 0.263 1.101 0.68l3.282 6.564c0.304 0.608 0.058 1.347-0.55 1.651s-1.347 0.058-1.651-0.55l-2.942-5.884h-8.325l-2.942 5.884c-0.304 0.608-1.043 0.854-1.651 0.55s-0.854-1.043-0.55-1.651l3.282-6.564z"></path>
</svg>
