<!-- Generated by IcoMoon.io -->
<svg version="1.1" xmlns="http://www.w3.org/2000/svg" width="1024" height="1024" viewBox="0 0 1024 1024">
<title></title>
<g id="icomoon-ignore">
</g>
<path d="M127.999 1024c-20.48 0-38.4-7.68-53.76-23.040s-23.040-33.28-23.040-53.76v-793.6c0-20.48 7.68-38.4 23.040-53.76s33.28-23.040 53.76-23.040h83.2v-35.84c0-11.605 3.925-21.334 11.776-29.184s17.579-11.776 29.184-11.776c11.968 0 22 3.925 30.097 11.776 8.095 7.85 12.143 17.579 12.143 29.184v35.84h435.201v-35.84c0-11.605 3.928-21.334 11.776-29.184s17.576-11.776 29.184-11.776c11.97 0 22.001 3.925 30.095 11.776s12.145 17.579 12.145 29.184v35.84h83.2c20.48 0 38.4 7.68 53.76 23.040s23.040 33.28 23.040 53.76v793.6c0 20.48-7.68 38.4-23.040 53.76s-33.28 23.040-53.76 23.040h-768zM127.999 947.2h768v-550.401h-768v550.401zM127.999 319.999h768v-166.4h-768v166.4zM511.999 614.399c-14.504 0-26.665-4.904-36.48-14.72s-14.72-21.976-14.72-36.48c0-14.504 4.904-26.665 14.72-36.48s21.976-14.72 36.48-14.72c14.504 0 26.665 4.904 36.48 14.72s14.72 21.976 14.72 36.48c0 14.504-4.904 26.665-14.72 36.48s-21.976 14.72-36.48 14.72zM307.199 614.399c-14.507 0-26.666-4.904-36.48-14.72s-14.72-21.976-14.72-36.48c0-14.504 4.907-26.665 14.72-36.48s21.973-14.72 36.48-14.72c14.507 0 26.666 4.904 36.48 14.72s14.72 21.976 14.72 36.48c0 14.504-4.907 26.665-14.72 36.48s-21.973 14.72-36.48 14.72zM716.799 614.399c-14.504 0-26.665-4.904-36.48-14.72s-14.72-21.976-14.72-36.48c0-14.504 4.904-26.665 14.72-36.48s21.976-14.72 36.48-14.72c14.504 0 26.665 4.904 36.48 14.72s14.72 21.976 14.72 36.48c0 14.504-4.904 26.665-14.72 36.48s-21.976 14.72-36.48 14.72zM511.999 819.199c-14.504 0-26.665-4.904-36.48-14.72s-14.72-21.976-14.72-36.48c0-14.504 4.904-26.665 14.72-36.48s21.976-14.72 36.48-14.72c14.504 0 26.665 4.904 36.48 14.72s14.72 21.976 14.72 36.48c0 14.504-4.904 26.665-14.72 36.48s-21.976 14.72-36.48 14.72zM307.199 819.199c-14.507 0-26.666-4.904-36.48-14.72s-14.72-21.976-14.72-36.48c0-14.504 4.907-26.665 14.72-36.48s21.973-14.72 36.48-14.72c14.507 0 26.666 4.904 36.48 14.72s14.72 21.976 14.72 36.48c0 14.504-4.907 26.665-14.72 36.48s-21.973 14.72-36.48 14.72zM716.799 819.199c-14.504 0-26.665-4.904-36.48-14.72s-14.72-21.976-14.72-36.48c0-14.504 4.904-26.665 14.72-36.48s21.976-14.72 36.48-14.72c14.504 0 26.665 4.904 36.48 14.72s14.72 21.976 14.72 36.48c0 14.504-4.904 26.665-14.72 36.48s-21.976 14.72-36.48 14.72z"></path>
</svg>
