<!-- Generated by IcoMoon.io -->
<svg version="1.1" xmlns="http://www.w3.org/2000/svg" width="1024" height="1024" viewBox="0 0 1024 1024">
<title></title>
<g id="icomoon-ignore">
</g>
<path d="M0 144.41c0-21.751 17.633-39.385 39.385-39.385h367.59c10.444 0 20.464 4.15 27.847 11.536l93.494 93.49h456.299c21.751 0 39.385 17.633 39.385 39.385v525.129c0 79.756-64.654 144.41-144.41 144.41h-735.179c-79.755 0-144.41-64.654-144.41-144.41v-630.154zM78.769 183.794v590.769c0 36.255 29.388 65.641 65.641 65.641h735.179c36.255 0 65.641-29.386 65.641-65.641v-485.744h-433.231c-10.444 0-20.464-4.15-27.847-11.536l-93.492-93.49h-311.892z"></path>
</svg>
