<!-- Generated by IcoMoon.io -->
<svg version="1.1" xmlns="http://www.w3.org/2000/svg" width="1024" height="1024" viewBox="0 0 1024 1024">
<title></title>
<g id="icomoon-ignore">
</g>
<path d="M804.57 87.772c-72.71 0-131.657 58.945-131.657 131.657s58.947 131.657 131.657 131.657c72.71 0 131.657-58.945 131.657-131.657s-58.947-131.657-131.657-131.657zM585.142 219.429c0-121.188 98.239-219.428 219.428-219.428s219.428 98.241 219.428 219.428c0 121.188-98.239 219.428-219.428 219.428s-219.428-98.241-219.428-219.428z"></path>
<path d="M219.429 672.914c-72.712 0-131.657 58.947-131.657 131.657s58.945 131.657 131.657 131.657c72.712 0 131.657-58.947 131.657-131.657s-58.945-131.657-131.657-131.657zM0 804.571c0-121.189 98.241-219.428 219.428-219.428s219.428 98.239 219.428 219.428c0 121.189-98.241 219.428-219.428 219.428s-219.428-98.239-219.428-219.428z"></path>
<path d="M585.142 629.028c0-24.237 19.648-43.886 43.886-43.886h351.086c24.237 0 43.886 19.648 43.886 43.886v292.571c0 56.554-45.845 102.4-102.4 102.4h-234.057c-56.554 0-102.4-45.845-102.4-102.4v-292.571zM672.913 672.914v248.685c0 8.080 6.547 14.629 14.629 14.629h234.057c8.080 0 14.629-6.547 14.629-14.629v-248.685h-263.314z"></path>
<path d="M0 43.886c0-24.237 19.648-43.886 43.886-43.886h351.086c24.237 0 43.886 19.648 43.886 43.886v292.571c0 56.554-45.845 102.4-102.4 102.4h-234.057c-56.554 0-102.4-45.845-102.4-102.4v-292.571zM87.772 87.772v248.685c0 8.079 6.55 14.629 14.629 14.629h234.057c8.079 0 14.629-6.55 14.629-14.629v-248.685h-263.314z"></path>
</svg>
