<svg width="16" height="16" viewBox="0 0 16 16" fill="none" xmlns="http://www.w3.org/2000/svg">
<g opacity="0.5">
<path d="M2.6665 4.66667C2.6665 4.29848 2.96498 4 3.33317 4H3.99984C4.36803 4 4.6665 4.29848 4.6665 4.66667C4.6665 5.03486 4.36803 5.33333 3.99984 5.33333H3.33317C2.96498 5.33333 2.6665 5.03486 2.6665 4.66667ZM5.99984 4.66667C5.99984 4.29848 6.29831 4 6.6665 4H12.6665C13.0347 4 13.3332 4.29848 13.3332 4.66667C13.3332 5.03486 13.0347 5.33333 12.6665 5.33333H6.6665C6.29831 5.33333 5.99984 5.03486 5.99984 4.66667ZM2.6665 8C2.6665 7.63181 2.96498 7.33333 3.33317 7.33333H3.99984C4.36803 7.33333 4.6665 7.63181 4.6665 8C4.6665 8.36819 4.36803 8.66667 3.99984 8.66667H3.33317C2.96498 8.66667 2.6665 8.36819 2.6665 8ZM5.99984 8C5.99984 7.63181 6.29831 7.33333 6.6665 7.33333H12.6665C13.0347 7.33333 13.3332 7.63181 13.3332 8C13.3332 8.36819 13.0347 8.66667 12.6665 8.66667H6.6665C6.29831 8.66667 5.99984 8.36819 5.99984 8ZM2.6665 11.3333C2.6665 10.9651 2.96498 10.6667 3.33317 10.6667H3.99984C4.36803 10.6667 4.6665 10.9651 4.6665 11.3333C4.6665 11.7015 4.36803 12 3.99984 12H3.33317C2.96498 12 2.6665 11.7015 2.6665 11.3333ZM5.99984 11.3333C5.99984 10.9651 6.29831 10.6667 6.6665 10.6667H12.6665C13.0347 10.6667 13.3332 10.9651 13.3332 11.3333C13.3332 11.7015 13.0347 12 12.6665 12H6.6665C6.29831 12 5.99984 11.7015 5.99984 11.3333Z"/>
</g>
</svg>
