<!-- Generated by IcoMoon.io -->
<svg version="1.1" xmlns="http://www.w3.org/2000/svg" width="1024" height="1024" viewBox="0 0 1024 1024">
<path d="M417.081 63.903c15.214-37.476 51.978-63.904 94.918-63.904s79.703 26.428 94.918 63.904c151.876 41.605 263.482 180.617 263.482 345.697v240.5l93.804 140.701c10.471 15.709 11.45 35.911 2.538 52.558-8.909 16.646-26.258 27.041-45.139 27.041h-232.217c-12.422 86.842-87.107 153.6-177.385 153.6s-164.963-66.759-177.385-153.6h-232.215c-18.882 0-36.233-10.394-45.142-27.041s-7.933-36.848 2.54-52.558l93.802-140.701v-240.5c0-165.079 111.607-304.093 263.483-345.697zM439.569 870.402c10.544 29.83 38.992 51.199 72.43 51.199s61.885-21.37 72.43-51.199h-144.861zM511.999 153.6c-141.385 0-256 114.615-256 256v256.001c0 10.106-2.992 19.987-8.599 28.4l-49.333 73.997h627.865l-49.332-73.997c-5.606-8.413-8.598-18.294-8.598-28.4v-256.001c0-141.385-114.617-256-256.001-256z"></path>
</svg>
