<!-- Generated by IcoMoon.io -->
<svg version="1.1" xmlns="http://www.w3.org/2000/svg" width="1024" height="1024" viewBox="0 0 1024 1024">
<title></title>
<g id="icomoon-ignore">
</g>
<path d="M512.001 71.442c-6.577 0-11.907 5.331-11.907 11.907s5.329 11.907 11.907 11.907c6.577 0 11.907-5.331 11.907-11.907s-5.329-11.907-11.907-11.907zM428.652 83.349c0-46.032 37.316-83.349 83.349-83.349s83.349 37.316 83.349 83.349c0 46.032-37.316 83.349-83.349 83.349s-83.349-37.316-83.349-83.349z"></path>
<path d="M512.001 166.698c-138.097 0-250.046 111.949-250.046 250.046v392.93h500.093v-392.93c0-138.097-111.949-250.046-250.046-250.046zM512.001 95.256c177.552 0 321.488 143.935 321.488 321.488v392.93h59.534c19.728 0 35.721 15.993 35.721 35.721s-15.993 35.721-35.721 35.721h-762.046c-19.728 0-35.721-15.993-35.721-35.721s15.993-35.721 35.721-35.721h59.534v-392.93c0-177.553 143.935-321.488 321.488-321.488z"></path>
<path d="M595.35 988.279c0 19.728-15.993 35.721-35.721 35.721h-95.255c-19.728 0-35.721-15.993-35.721-35.721s15.993-35.721 35.721-35.721h95.255c19.728 0 35.721 15.993 35.721 35.721z"></path>
</svg>
