<!-- Generated by IcoMoon.io -->
<svg version="1.1" xmlns="http://www.w3.org/2000/svg" width="1024" height="1024" viewBox="0 0 1024 1024">
<path stroke="currentStroke" fill="none" stroke-linejoin="miter" stroke-linecap="butt" stroke-miterlimit="4" stroke-width="64" d="M256.002 32h512.001c123.709 0 224.002 100.29 224.002 224.002v512.001c0 123.709-100.29 224.002-224.002 224.002h-512.001c-123.709 0-224.002-100.29-224.002-224.002v-512.001c0-123.709 100.29-224.002 224.002-224.002z"></path>
<path stroke="#000" d="M566.332 319.998c0-17.671-14.324-32.003-32.003-32.003s-32.003 14.324-32.003 32.003v182.32h-182.338c-17.671 0-32.003 14.324-32.003 32.003s14.324 32.003 32.003 32.003h182.338v182.325c0 17.671 14.324 32.003 32.003 32.003s32.003-14.328 32.003-32.003v-182.325h182.31c17.671 0 32.003-14.323 32.003-32.003s-14.328-32.003-32.003-32.003h-182.31v-182.32z"></path>
</svg>
