<svg width="16" height="16" viewBox="0 0 16 16" fill="none" xmlns="http://www.w3.org/2000/svg">
<g filter="url(#filter0_ii_235_824)">
<rect x="0.5" y="0.5" width="15" height="15" rx="3.5" stroke="#9393B4"/>
<path fill-rule="evenodd" clip-rule="evenodd" d="M8.84904 5C8.84904 4.72386 8.62518 4.5 8.34904 4.5C8.0729 4.5 7.84904 4.72386 7.84904 5V7.84881L5 7.84881C4.72386 7.84881 4.5 8.07267 4.5 8.34881C4.5 8.62496 4.72386 8.84881 5 8.84881H7.84904V11.6977C7.84904 11.9738 8.0729 12.1977 8.34904 12.1977C8.62518 12.1977 8.84904 11.9738 8.84904 11.6977V8.84881H11.6977C11.9738 8.84881 12.1977 8.62496 12.1977 8.34881C12.1977 8.07267 11.9738 7.84881 11.6977 7.84881L8.84904 7.84881V5Z" fill="#9393B4"/>
</g>
<defs>
<filter id="filter0_ii_235_824" x="-4" y="-4" width="24" height="24" filterUnits="userSpaceOnUse" color-interpolation-filters="sRGB">
<feFlood flood-opacity="0" result="BackgroundImageFix"/>
<feBlend mode="normal" in="SourceGraphic" in2="BackgroundImageFix" result="shape"/>
<feColorMatrix in="SourceAlpha" type="matrix" values="0 0 0 0 0 0 0 0 0 0 0 0 0 0 0 0 0 0 127 0" result="hardAlpha"/>
<feOffset dx="4" dy="4"/>
<feGaussianBlur stdDeviation="2"/>
<feComposite in2="hardAlpha" operator="arithmetic" k2="-1" k3="1"/>
<feColorMatrix type="matrix" values="0 0 0 0 0.411765 0 0 0 0 0.364706 0 0 0 0 0.984314 0 0 0 0.15 0"/>
<feBlend mode="normal" in2="shape" result="effect1_innerShadow_235_824"/>
<feColorMatrix in="SourceAlpha" type="matrix" values="0 0 0 0 0 0 0 0 0 0 0 0 0 0 0 0 0 0 127 0" result="hardAlpha"/>
<feOffset dx="-4" dy="-4"/>
<feGaussianBlur stdDeviation="2"/>
<feComposite in2="hardAlpha" operator="arithmetic" k2="-1" k3="1"/>
<feColorMatrix type="matrix" values="0 0 0 0 0.411765 0 0 0 0 0.364706 0 0 0 0 0.984314 0 0 0 0.14 0"/>
<feBlend mode="normal" in2="effect1_innerShadow_235_824" result="effect2_innerShadow_235_824"/>
</filter>
</defs>
</svg>
