<!-- Generated by IcoMoon.io -->
<svg version="1.1" xmlns="http://www.w3.org/2000/svg" width="1024" height="1024" viewBox="0 0 1024 1024">
<title></title>
<g id="icomoon-ignore">
</g>
<path d="M459.489 78.769c-210.265 0-380.718 170.453-380.718 380.718 0 210.267 170.453 380.718 380.718 380.718 105.141 0 200.269-42.572 269.208-111.512s111.512-164.065 111.512-269.208c0-210.265-170.452-380.718-380.718-380.718zM0.001 459.487c0-253.768 205.72-459.487 459.487-459.487s459.487 205.72 459.487 459.487c0 112.687-40.608 215.954-107.919 295.869l201.408 201.413c15.381 15.381 15.381 40.314 0 55.695s-40.314 15.381-55.695 0l-201.413-201.408c-79.914 67.311-183.181 107.919-295.869 107.919-253.768 0-459.487-205.72-459.487-459.487z"></path>
</svg>
