<!-- Generated by IcoMoon.io -->
<svg version="1.1" xmlns="http://www.w3.org/2000/svg" width="1024" height="1024" viewBox="0 0 1024 1024">
<title></title>
<g id="icomoon-ignore">
</g>
<path d="M511.978 446.365c-36.249 0-65.63 29.381-65.63 65.63s29.381 65.63 65.63 65.63c36.249 0 65.63-29.381 65.63-65.63s-29.381-65.63-65.63-65.63zM367.591 511.995c0-79.744 64.643-144.387 144.387-144.387s144.387 64.643 144.387 144.387c0 79.744-64.643 144.387-144.387 144.387s-144.387-64.643-144.387-144.387z"></path>
<path d="M367.608 51.144c0-18.373 12.706-34.304 30.618-38.392 75.86-17.312 153.646-16.735 227.546 0.127 17.91 4.087 30.616 20.019 30.616 38.392v96.962c0 50.523 54.694 82.099 98.446 56.838l84.066-48.533c15.925-9.195 36.097-6.142 48.588 7.355 25.501 27.554 48.325 58.333 67.847 92.146s34.764 68.969 45.878 104.829c5.439 17.566-2.001 36.562-17.925 45.758l-84.066 48.534c-43.752 25.26-43.752 88.412 0 113.678l83.976 48.482c15.909 9.183 23.354 28.153 17.936 45.711-22.346 72.424-60.738 140.083-113.662 197.124-12.497 13.467-32.642 16.502-48.556 7.319l-84.080-48.546c-43.752-25.26-98.446 6.317-98.446 56.837v97.091c0 18.371-12.706 34.301-30.616 38.392-75.859 17.311-153.65 16.733-227.545-0.126-17.912-4.090-30.618-20.020-30.618-38.392v-96.966c0-50.525-54.692-82.102-98.446-56.842l-84.062 48.535c-15.927 9.194-36.098 6.143-48.589-7.356-25.5-27.554-48.326-58.333-67.847-92.141-19.522-33.813-34.764-68.97-45.876-104.837-5.443-17.563 1.998-36.559 17.925-45.758l84.061-48.53c43.753-25.26 43.753-88.412 0-113.678l-83.971-48.479c-15.911-9.186-23.355-28.156-17.939-45.712 22.346-72.427 60.74-140.081 113.662-197.122 12.497-13.469 32.646-16.506 48.557-7.319l84.080 48.544c43.754 25.261 98.446-6.315 98.446-56.838v-97.088zM446.362 83.708v64.523c0 111.149-120.321 180.618-216.58 125.044l-55.878-32.262c-27.725 34.61-49.713 73.033-65.537 113.736l55.783 32.207c96.258 55.577 96.258 194.514 0 250.085l-55.825 32.232c7.879 20.146 17.377 39.967 28.542 59.309 11.165 19.337 23.583 37.472 37.087 54.368l55.828-32.232c96.259-55.577 216.58 13.893 216.58 125.045v64.412c43.164 6.648 87.431 6.82 131.267 0.116v-64.528c0-111.147 120.325-180.615 216.582-125.040l55.88 32.258c27.722-34.611 49.712-73.033 65.537-113.736l-55.786-32.207c-96.257-55.577-96.257-194.514 0-250.088l55.828-32.232c-7.881-20.143-17.373-39.965-28.542-59.304s-23.585-37.476-37.090-54.372l-55.828 32.231c-96.257 55.575-216.582-13.893-216.582-125.044v-64.413c-43.159-6.646-87.431-6.816-131.267-0.111z"></path>
</svg>
