<!-- Generated by IcoMoon.io -->
<svg version="1.1" xmlns="http://www.w3.org/2000/svg" width="1024" height="1024" viewBox="0 0 1024 1024">

<g id="tasks_icon">
</g>
<path d="M186.181 186.182c-25.706 0-46.546 20.84-46.546 46.546v651.636c0 25.707 20.84 46.546 46.546 46.546h651.636c25.707 0 46.546-20.839 46.546-46.546v-651.636c0-25.706-20.839-46.546-46.546-46.546h-651.636zM46.545 232.727c0-77.119 62.518-139.637 139.637-139.637h651.636c77.121 0 139.637 62.518 139.637 139.637v651.636c0 77.121-62.515 139.637-139.637 139.637h-651.636c-77.119 0-139.637-62.515-139.637-139.637v-651.636z"></path>
<path d="M698.181 0c25.707 0 46.546 20.839 46.546 46.546v186.182c0 25.706-20.839 46.546-46.546 46.546s-46.546-20.84-46.546-46.546v-186.182c0-25.706 20.839-46.546 46.546-46.546z"></path>
<path d="M325.817 0c25.706 0 46.546 20.839 46.546 46.546v186.182c0 25.706-20.84 46.546-46.546 46.546s-46.546-20.84-46.546-46.546v-186.182c0-25.706 20.84-46.546 46.546-46.546z"></path>
<path d="M46.545 418.908c0-25.706 20.839-46.546 46.546-46.546h837.817c25.707 0 46.546 20.84 46.546 46.546s-20.839 46.546-46.546 46.546h-837.817c-25.706 0-46.546-20.84-46.546-46.546z"></path>
</svg>
