<!-- Generated by IcoMoon.io -->
<svg version="1.1" xmlns="http://www.w3.org/2000/svg" width="1024" height="1024" viewBox="0 0 1024 1024">
<title></title>
<g id="icomoon-ignore">
</g>
<path d="M386.325 204.799c-66.739 0-116.364 50.806-116.364 108.090s49.623 108.090 116.364 108.090c66.742 0 116.365-50.806 116.365-108.090s-49.623-108.090-116.365-108.090zM167.562 312.889c0-118.663 100.418-210.489 218.764-210.489s218.765 91.827 218.765 210.489c0 118.663-100.419 210.489-218.765 210.489s-218.764-91.826-218.764-210.489zM629.815 146.667c6.687-27.475 34.381-44.327 61.855-37.639 46.541 11.328 88.28 37.171 118.354 74.005 30.121 36.883 46.74 82.631 46.74 130.054s-16.62 93.171-46.74 130.054c-30.075 36.832-71.814 62.678-118.354 74.004-27.474 6.687-55.168-10.163-61.855-37.638s10.163-55.17 37.638-61.856c25.549-6.218 47.703-20.228 63.258-39.276 15.509-18.996 23.654-41.974 23.654-65.288s-8.146-46.294-23.654-65.288c-15.555-19.047-37.709-33.057-63.258-39.276-27.474-6.687-44.324-34.381-37.638-61.855zM65 641.014c41.202-39.168 96.555-60.749 153.762-60.749h335.129c57.206 0 112.559 21.581 153.759 60.749 41.293 39.25 65.004 93.056 65.004 149.74v79.647c0 28.278-22.922 51.2-51.2 51.2s-51.2-22.922-51.2-51.2v-79.647c0-27.801-11.597-55.030-33.152-75.525-21.647-20.578-51.538-32.563-83.211-32.563h-335.129c-31.675 0-61.563 11.986-83.21 32.563-21.558 20.495-33.154 47.724-33.154 75.525v79.647c0 28.278-22.923 51.2-51.2 51.2s-51.2-22.922-51.2-51.2v-79.647c0-56.683 23.713-110.49 65.002-149.74zM797.403 624.44c6.738-27.464 34.467-44.263 61.927-37.52 46.423 11.392 88.033 37.233 118.016 74.005 30.029 36.823 46.618 82.468 46.653 129.793v79.683c0 28.278-22.922 51.2-51.2 51.2s-51.2-22.922-51.2-51.2v-79.606c-0.021-23.265-8.146-46.192-23.608-65.152-15.509-19.016-37.591-33.019-63.069-39.276-27.464-6.738-44.263-34.467-37.52-61.927z"></path>
</svg>
