<!-- Generated by IcoMoon.io -->
<svg version="1.1" xmlns="http://www.w3.org/2000/svg" width="1024" height="1024" viewBox="0 0 1024 1024">
<title></title>
<g id="icomoon-ignore">
</g>
<path d="M196.922 210.052c21.751 0 39.385 17.633 39.385 39.385v630.154c0 36.255 29.388 65.641 65.641 65.641h420.102c36.255 0 65.641-29.386 65.641-65.641v-630.154c0-21.751 17.633-39.385 39.385-39.385s39.385 17.633 39.385 39.385v630.154c0 79.756-64.654 144.41-144.41 144.41h-420.102c-79.755 0-144.41-64.654-144.41-144.41v-630.154c0-21.751 17.633-39.385 39.385-39.385z"></path>
<path d="M52.512 249.436c0-21.751 17.633-39.385 39.385-39.385h840.206c21.751 0 39.385 17.633 39.385 39.385s-17.633 39.385-39.385 39.385h-840.206c-21.751 0-39.385-17.633-39.385-39.385z"></path>
<path d="M319.242 21.771c6.672-13.343 20.309-21.771 35.227-21.771h315.079c14.913 0 28.551 8.428 35.226 21.771l105.025 210.052c9.726 19.455 1.844 43.113-17.612 52.839s-43.113 1.841-52.843-17.614l-94.14-188.279h-266.393l-94.14 188.279c-9.728 19.455-33.385 27.34-52.839 17.614s-27.34-33.385-17.614-52.839l105.025-210.052z"></path>
</svg>
